<svg width="15" height="15" viewBox="0 0 15 15" fill="none" xmlns="http://www.w3.org/2000/svg">
<path d="M7.5 1.875C10.5938 1.875 13.125 4.40625 13.125 7.5C13.125 10.5938 10.5938 13.125 7.5 13.125C4.40625 13.125 1.875 10.5938 1.875 7.5C1.875 4.40625 4.40625 1.875 7.5 1.875ZM7.5 0.9375C3.89062 0.9375 0.9375 3.89062 0.9375 7.5C0.9375 11.1094 3.89062 14.0625 7.5 14.0625C11.1094 14.0625 14.0625 11.1094 14.0625 7.5C14.0625 3.89062 11.1094 0.9375 7.5 0.9375Z" fill="white"/>
<path d="M11.25 7.03125H7.96875V3.75H7.03125V7.03125H3.75V7.96875H7.03125V11.25H7.96875V7.96875H11.25V7.03125Z" fill="black"/>
</svg>
