<svg width="17" height="17" viewBox="0 0 17 17" fill="none" xmlns="http://www.w3.org/2000/svg">
<path d="M15.8995 3.33371C15.7555 3.08424 15.5493 2.87634 15.301 2.73029C15.0528 2.58425 14.7709 2.50505 14.4829 2.50041H3.81654L3.33322 0.617135C3.28439 0.43534 3.17545 0.275433 3.02413 0.16346C2.87282 0.0514869 2.68805 -0.00595544 2.49992 0.000488718H0.833306C0.6123 0.000488718 0.400345 0.0882832 0.24407 0.244558C0.0877945 0.400834 0 0.612788 0 0.833795C0 1.0548 0.0877945 1.26676 0.24407 1.42303C0.400345 1.57931 0.6123 1.6671 0.833306 1.6671H1.86661L4.16653 10.2168C4.21536 10.3986 4.32431 10.5585 4.47562 10.6705C4.62694 10.7825 4.81171 10.8399 4.99984 10.8335H12.4996C12.6535 10.833 12.8042 10.7899 12.9351 10.709C13.066 10.6281 13.172 10.5126 13.2412 10.3752L15.9745 4.90866C16.0929 4.66035 16.1481 4.38657 16.135 4.11176C16.1219 3.83694 16.041 3.56965 15.8995 3.33371ZM11.9829 9.16686H5.63315L4.27486 4.16702H14.4829L11.9829 9.16686Z" fill="black"/>
<path d="M2.58321 17C3.27354 17 3.83317 16.4404 3.83317 15.7501C3.83317 15.0597 3.27354 14.5001 2.58321 14.5001C1.89288 14.5001 1.33325 15.0597 1.33325 15.7501C1.33325 16.4404 1.89288 17 2.58321 17Z" fill="black"/>
<path d="M10.9162 17C11.6066 17 12.1662 16.4404 12.1662 15.7501C12.1662 15.0597 11.6066 14.5001 10.9162 14.5001C10.2259 14.5001 9.66626 15.0597 9.66626 15.7501C9.66626 16.4404 10.2259 17 10.9162 17Z" fill="black"/>
</svg>
