<svg width="15" height="15" viewBox="0 0 15 15" fill="none" xmlns="http://www.w3.org/2000/svg">
<path fill-rule="evenodd" clip-rule="evenodd" d="M0.9375 7.5C0.9375 9.24048 1.6289 10.9097 2.85961 12.1404C4.09032 13.3711 5.75952 14.0625 7.5 14.0625C9.24048 14.0625 10.9097 13.3711 12.1404 12.1404C13.3711 10.9097 14.0625 9.24048 14.0625 7.5C14.0625 5.75952 13.3711 4.09032 12.1404 2.85961C10.9097 1.6289 9.24048 0.9375 7.5 0.9375C5.75952 0.9375 4.09032 1.6289 2.85961 2.85961C1.6289 4.09032 0.9375 5.75952 0.9375 7.5ZM15 7.5C15 9.48912 14.2098 11.3968 12.8033 12.8033C11.3968 14.2098 9.48912 15 7.5 15C5.51088 15 3.60322 14.2098 2.1967 12.8033C0.790176 11.3968 0 9.48912 0 7.5C0 5.51088 0.790176 3.60322 2.1967 2.1967C3.60322 0.790176 5.51088 0 7.5 0C9.48912 0 11.3968 0.790176 12.8033 2.1967C14.2098 3.60322 15 5.51088 15 7.5ZM7.96875 4.21875C7.96875 4.09443 7.91936 3.9752 7.83146 3.88729C7.74355 3.79939 7.62432 3.75 7.5 3.75C7.37568 3.75 7.25645 3.79939 7.16854 3.88729C7.08064 3.9752 7.03125 4.09443 7.03125 4.21875V9.64969L5.01937 7.63688C4.93136 7.54886 4.81198 7.49941 4.6875 7.49941C4.56302 7.49941 4.44364 7.54886 4.35563 7.63688C4.26761 7.72489 4.21816 7.84427 4.21816 7.96875C4.21816 8.09323 4.26761 8.21261 4.35563 8.30062L7.16813 11.1131C7.21167 11.1568 7.26339 11.1914 7.32034 11.215C7.37729 11.2387 7.43834 11.2508 7.5 11.2508C7.56166 11.2508 7.62271 11.2387 7.67966 11.215C7.7366 11.1914 7.78833 11.1568 7.83187 11.1131L10.6444 8.30062C10.7324 8.21261 10.7818 8.09323 10.7818 7.96875C10.7818 7.84427 10.7324 7.72489 10.6444 7.63688C10.5564 7.54886 10.437 7.49941 10.3125 7.49941C10.188 7.49941 10.0686 7.54886 9.98063 7.63688L7.96875 9.64969V4.21875Z" fill="black"/>
</svg>
