<svg width="15" height="15" viewBox="0 0 15 15" fill="none" xmlns="http://www.w3.org/2000/svg">
<path d="M7.49963 12.4007C8.20911 12.4007 8.85709 12.3243 9.44808 12.1922L8.13036 10.888C7.92561 10.9036 7.71787 10.9162 7.49963 10.9162C3.48647 10.9162 1.93176 8.06155 1.55526 7.205C1.83797 6.58063 2.21978 6.00504 2.68624 5.50006L1.63776 4.46239C0.48429 5.69972 0.04705 6.94595 0.0388002 6.97045C-0.0129334 7.12288 -0.0129334 7.28786 0.0388002 7.44029C0.0545498 7.48928 1.77501 12.4007 7.49963 12.4007ZM7.49963 2.00926C6.12191 2.00926 4.99018 2.30319 4.04671 2.73741L1.28002 0L0.219546 1.04954L13.7192 14.41L14.7797 13.3605L12.2905 10.8969C14.251 9.44882 14.9507 7.47147 14.9612 7.44029C15.0129 7.28786 15.0129 7.12288 14.9612 6.97045C14.9447 6.92072 13.2242 2.00926 7.49963 2.00926ZM11.2285 9.84592L9.51858 8.15359C9.66107 7.86412 9.74957 7.54569 9.74957 7.205C9.74957 5.98697 8.73035 4.97826 7.49963 4.97826C7.15538 4.97826 6.83364 5.06584 6.5419 5.20761L5.18593 3.86563C5.9303 3.61283 6.71268 3.48708 7.49963 3.49376C11.5128 3.49376 13.0675 6.34845 13.444 7.205C13.2175 7.71864 12.5695 8.94334 11.2285 9.84592Z" fill="white" fill-opacity="0.9"/>
</svg>
