<svg width="19" height="17" viewBox="0 0 19 17" fill="none" xmlns="http://www.w3.org/2000/svg">
<path d="M6 4.33333H12.6667M6 4.33333H2.66667C2.22464 4.33333 1.80072 4.50893 1.48816 4.82149C1.17559 5.13405 1 5.55797 1 6V14.3333C1 14.7754 1.17559 15.1993 1.48816 15.5118C1.80072 15.8244 2.22464 16 2.66667 16H16C16.442 16 16.8659 15.8244 17.1785 15.5118C17.4911 15.1993 17.6667 14.7754 17.6667 14.3333V6C17.6667 5.55797 17.4911 5.13405 17.1785 4.82149C16.8659 4.50893 16.442 4.33333 16 4.33333H12.6667H6ZM6 4.33333V1.5C6 1.36739 6.05268 1.24021 6.14645 1.14645C6.24021 1.05268 6.36739 1 6.5 1H12.1667C12.2993 1 12.4265 1.05268 12.5202 1.14645C12.614 1.24021 12.6667 1.36739 12.6667 1.5V4.33333H6Z" stroke="black" stroke-width="1.5625"/>
</svg>
