<svg width="15" height="15" viewBox="0 0 15 15" fill="none" xmlns="http://www.w3.org/2000/svg">
<path d="M2.8125 14.0625H8.4375C8.68606 14.0623 8.92438 13.9634 9.10014 13.7876C9.2759 13.6119 9.37475 13.3736 9.375 13.125V11.7188H8.4375V13.125H2.8125V1.875H8.4375V3.28125H9.375V1.875C9.37475 1.62644 9.2759 1.38812 9.10014 1.21236C8.92438 1.0366 8.68606 0.937748 8.4375 0.9375H2.8125C2.56394 0.937748 2.32562 1.0366 2.14986 1.21236C1.9741 1.38812 1.87525 1.62644 1.875 1.875V13.125C1.87525 13.3736 1.9741 13.6119 2.14986 13.7876C2.32562 13.9634 2.56394 14.0623 2.8125 14.0625Z" fill="white"/>
<path d="M9.64969 9.64969L11.3306 7.96875H4.6875V7.03125H11.3306L9.64969 5.35031L10.3125 4.6875L13.125 7.5L10.3125 10.3125L9.64969 9.64969Z" fill="black"/>
</svg>
