<svg width="15" height="15" viewBox="0 0 15 15" fill="none" xmlns="http://www.w3.org/2000/svg">
<path d="M10.3125 5.625C10.3125 6.37092 10.0162 7.08629 9.48874 7.61374C8.96129 8.14118 8.24592 8.4375 7.5 8.4375C6.75408 8.4375 6.03871 8.14118 5.51126 7.61374C4.98382 7.08629 4.6875 6.37092 4.6875 5.625C4.6875 4.87908 4.98382 4.16371 5.51126 3.63626C6.03871 3.10882 6.75408 2.8125 7.5 2.8125C8.24592 2.8125 8.96129 3.10882 9.48874 3.63626C10.0162 4.16371 10.3125 4.87908 10.3125 5.625Z" fill="black"/>
<path fill-rule="evenodd" clip-rule="evenodd" d="M0 7.5C0 5.51088 0.790176 3.60322 2.1967 2.1967C3.60322 0.790176 5.51088 0 7.5 0C9.48912 0 11.3968 0.790176 12.8033 2.1967C14.2098 3.60322 15 5.51088 15 7.5C15 9.48912 14.2098 11.3968 12.8033 12.8033C11.3968 14.2098 9.48912 15 7.5 15C5.51088 15 3.60322 14.2098 2.1967 12.8033C0.790176 11.3968 0 9.48912 0 7.5ZM7.5 0.9375C6.26417 0.937566 5.05347 1.28659 4.00725 1.9444C2.96104 2.60221 2.12183 3.54207 1.58622 4.65581C1.05061 5.76954 0.840362 7.01188 0.979686 8.23983C1.11901 9.46779 1.60224 10.6314 2.37375 11.5969C3.03938 10.5244 4.50469 9.375 7.5 9.375C10.4953 9.375 11.9597 10.5234 12.6263 11.5969C13.3978 10.6314 13.881 9.46779 14.0203 8.23983C14.1596 7.01188 13.9494 5.76954 13.4138 4.65581C12.8782 3.54207 12.039 2.60221 10.9927 1.9444C9.94653 1.28659 8.73583 0.937566 7.5 0.9375Z" fill="black"/>
</svg>
