<svg width="15" height="19" viewBox="0 0 15 19" fill="none" xmlns="http://www.w3.org/2000/svg">
<path d="M5.33333 13.6667V12V13.6667ZM7.83333 13.6667V10.3333V13.6667ZM10.3333 13.6667V8.66667V13.6667ZM12 17H3.66667C3.22464 17 2.80072 16.8244 2.48816 16.5118C2.17559 16.1993 2 15.7754 2 15.3333V3.66667C2 3.22464 2.17559 2.80072 2.48816 2.48816C2.80072 2.17559 3.22464 2 3.66667 2H8.32167C8.54266 2.00005 8.75459 2.08788 8.91083 2.24417L13.4225 6.75583C13.5788 6.91208 13.6666 7.124 13.6667 7.345V15.3333C13.6667 15.7754 13.4911 16.1993 13.1785 16.5118C12.866 16.8244 12.442 17 12 17Z" stroke="black" stroke-width="2.08333" stroke-linecap="round" stroke-linejoin="round"/>
</svg>
