<svg width="15" height="15" viewBox="0 0 15 15" fill="none" xmlns="http://www.w3.org/2000/svg">
<path d="M8.79416 0C8.90758 3.57409e-06 9.01807 0.0360041 9.10972 0.102817C9.20138 0.16963 9.26946 0.263807 9.30416 0.371786L9.89345 2.20286C10.1409 2.32393 10.3777 2.46 10.6038 2.61321L12.4852 2.20821C12.5962 2.18453 12.7117 2.19667 12.8153 2.24288C12.9189 2.28909 13.0052 2.36699 13.0617 2.46536L14.5467 5.03571C14.6034 5.13402 14.6274 5.2478 14.6153 5.36065C14.6031 5.47349 14.5555 5.57956 14.4792 5.66357L13.1881 7.08857C13.2069 7.36182 13.2069 7.63604 13.1881 7.90929L14.4792 9.33643C14.5555 9.42044 14.6031 9.52651 14.6153 9.63935C14.6274 9.7522 14.6034 9.86598 14.5467 9.96429L13.0617 12.5357C13.005 12.6339 12.9187 12.7116 12.8151 12.7576C12.7116 12.8036 12.5961 12.8156 12.4852 12.7918L10.6038 12.3868C10.3788 12.5389 10.1409 12.6761 9.89452 12.7971L9.30416 14.6282C9.26946 14.7362 9.20138 14.8304 9.10972 14.8972C9.01807 14.964 8.90758 15 8.79416 15H5.82416C5.71074 15 5.60025 14.964 5.5086 14.8972C5.41695 14.8304 5.34887 14.7362 5.31416 14.6282L4.72595 12.7982C4.47911 12.6775 4.24103 12.5397 4.01345 12.3857L2.13309 12.7918C2.02216 12.8155 1.90658 12.8033 1.80299 12.7571C1.6994 12.7109 1.61315 12.633 1.55666 12.5346L0.0716632 9.96429C0.0149573 9.86598 -0.00906156 9.7522 0.0030699 9.63935C0.0152014 9.52651 0.0628562 9.42044 0.139163 9.33643L1.43023 7.90929C1.41153 7.63675 1.41153 7.36325 1.43023 7.09071L0.139163 5.66357C0.0628562 5.57956 0.0152014 5.47349 0.0030699 5.36065C-0.00906156 5.2478 0.0149573 5.13402 0.0716632 5.03571L1.55666 2.46429C1.6133 2.36611 1.69962 2.28844 1.8032 2.24242C1.90677 2.19641 2.02228 2.18443 2.13309 2.20821L4.01345 2.61429C4.24059 2.46107 4.47845 2.32286 4.72595 2.20179L5.31523 0.371786C5.34983 0.264155 5.41758 0.170227 5.50881 0.103446C5.60003 0.0366658 5.71004 0.000456072 5.82309 0H8.79309H8.79416ZM8.40202 1.07143H6.21631L5.60773 2.96464L5.19738 3.165C4.99565 3.26372 4.80091 3.37612 4.61452 3.50143L4.23523 3.75857L2.28952 3.33857L1.19666 5.23286L2.53059 6.70929L2.49845 7.16357C2.48305 7.38759 2.48305 7.61241 2.49845 7.83643L2.53059 8.29071L1.19452 9.76714L2.28845 11.6614L4.23416 11.2425L4.61345 11.4986C4.79983 11.6239 4.99457 11.7363 5.19631 11.835L5.60666 12.0354L6.21631 13.9286H8.40416L9.01488 12.0343L9.42416 11.835C9.62567 11.7365 9.82007 11.6241 10.0059 11.4986L10.3842 11.2425L12.3309 11.6614L13.4238 9.76714L12.0888 8.29071L12.1209 7.83643C12.1364 7.61205 12.1364 7.38688 12.1209 7.1625L12.0888 6.70821L13.4249 5.23286L12.3309 3.33857L10.3842 3.75643L10.0059 3.50143C9.82009 3.37587 9.62569 3.26346 9.42416 3.165L9.01488 2.96571L8.40309 1.07143H8.40202ZM7.30916 4.28571C8.16164 4.28571 8.97921 4.62436 9.58201 5.22716C10.1848 5.82995 10.5234 6.64752 10.5234 7.5C10.5234 8.35248 10.1848 9.17005 9.58201 9.77284C8.97921 10.3756 8.16164 10.7143 7.30916 10.7143C6.45668 10.7143 5.63912 10.3756 5.03632 9.77284C4.43352 9.17005 4.09488 8.35248 4.09488 7.5C4.09488 6.64752 4.43352 5.82995 5.03632 5.22716C5.63912 4.62436 6.45668 4.28571 7.30916 4.28571ZM7.30916 5.35714C6.74084 5.35714 6.1958 5.58291 5.79393 5.98477C5.39207 6.38663 5.16631 6.93168 5.16631 7.5C5.16631 8.06832 5.39207 8.61336 5.79393 9.01523C6.1958 9.41709 6.74084 9.64286 7.30916 9.64286C7.87748 9.64286 8.42253 9.41709 8.82439 9.01523C9.22626 8.61336 9.45202 8.06832 9.45202 7.5C9.45202 6.93168 9.22626 6.38663 8.82439 5.98477C8.42253 5.58291 7.87748 5.35714 7.30916 5.35714Z" fill="black"/>
</svg>
