<svg width="15" height="15" viewBox="0 0 15 15" fill="none" xmlns="http://www.w3.org/2000/svg">
<path d="M7.75 6C7.28682 6.00306 6.84347 6.18841 6.51594 6.51594C6.18841 6.84347 6.00306 7.28682 6 7.75C6 8.70783 6.79217 9.5 7.75 9.5C8.70725 9.5 9.5 8.70783 9.5 7.75C9.5 6.79275 8.70725 6 7.75 6Z" fill="white" fill-opacity="0.9"/>
<path d="M7.5 3C1.806 3 0.0947385 7.93609 0.079073 7.98607L0 8.2218L0.0783271 8.45753C0.0947385 8.50751 1.806 13.4436 7.5 13.4436C13.194 13.4436 14.9053 8.50751 14.9209 8.45753L15 8.2218L14.9217 7.98607C14.9053 7.93609 13.194 3 7.5 3ZM7.5 11.9517C3.5083 11.9517 1.96191 9.08265 1.58743 8.2218C1.9634 7.35797 3.51054 4.49194 7.5 4.49194C11.4917 4.49194 13.0381 7.36095 13.4126 8.2218C13.0366 9.08564 11.4895 11.9517 7.5 11.9517Z" fill="white" fill-opacity="0.9"/>
</svg>
